<svg width="73" height="74" fill="none" xmlns="http://www.w3.org/2000/svg"><mask id="mask0" maskUnits="userSpaceOnUse" x="0" y="46" width="58" height="28"><path fill-rule="evenodd" clip-rule="evenodd" d="M.89 46.447h56.65V73.58H.89V46.447z" fill="#fff"/></mask><g mask="url(#mask0)"><path fill-rule="evenodd" clip-rule="evenodd" d="M29.215 51.992c-15.214 0-22.93 2.688-22.93 7.983 0 5.346 7.716 8.06 22.93 8.06 15.215 0 22.931-2.688 22.931-7.98 0-5.353-7.716-8.063-22.93-8.063zm0 21.588c-7.004 0-28.324 0-28.324-13.605 0-12.127 16.163-13.529 28.325-13.529 7.004 0 28.324 0 28.324 13.61 0 12.123-16.163 13.524-28.325 13.524z" fill="#C7C7C7"/></g><path fill-rule="evenodd" clip-rule="evenodd" d="M29.216 5.94c-7.566 0-13.726 6.333-13.726 14.116-.014 3.767 1.395 7.298 3.966 9.964 2.575 2.662 6.006 4.137 9.659 4.152l.1 2.773v-2.773c7.57 0 13.73-6.333 13.73-14.116 0-7.783-6.16-14.116-13.73-14.116zm0 33.778h-.112c-5.102-.019-9.885-2.078-13.47-5.79-3.589-3.716-5.556-8.648-5.538-13.883 0-10.83 8.576-19.65 19.12-19.65 10.546 0 19.123 8.82 19.123 19.661 0 10.84-8.577 19.662-19.123 19.662zm33.539 2.934c-1.49 0-2.697-1.242-2.697-2.773V25.05c0-1.53 1.208-2.772 2.697-2.772 1.488 0 2.696 1.242 2.696 2.773v14.83c0 1.53-1.208 2.772-2.696 2.772z" fill="#C7C7C7"/><path fill-rule="evenodd" clip-rule="evenodd" d="M70.112 35.236H55.404c-1.488 0-2.697-1.242-2.697-2.773 0-1.53 1.209-2.773 2.697-2.773h14.708c1.488 0 2.697 1.242 2.697 2.773 0 1.53-1.209 2.773-2.697 2.773z" fill="#C7C7C7"/></svg>