<svg width="922" height="620" viewBox="0 0 922 620" fill="none" xmlns="http://www.w3.org/2000/svg">
<path d="M-102 -29H1054L498.473 125.554V368.476C498.473 368.476 459.772 370.289 453.12 368.476C446.468 366.664 429.536 326.176 429.536 326.176C429.536 326.176 395.068 332.521 390.533 331.615C385.998 330.709 389.834 335.196 391.44 340.377C394.659 350.762 401.418 366.664 401.418 366.664C401.418 366.664 405.49 379.02 411.093 384.792C418.18 392.094 433.769 392.95 433.769 392.95L442.538 400.504H450.096C450.096 400.504 447.98 396.878 457.353 393.743C466.726 390.609 475.796 389.626 475.796 389.626L496.961 385.699L535.965 393.743L532.941 407.151L475.796 405.338C475.796 405.338 470.656 415.309 516.916 444.616C563.176 473.924 610.948 460.026 610.948 460.026C610.948 460.026 628.182 454.889 643.602 442.501C659.022 430.114 663.255 417.726 663.255 417.726L926 466.069V624.5H-102V-29Z" fill="#131313" fill-opacity="0.6"/>
</svg>
