<svg width="20" height="20" fill="none" xmlns="http://www.w3.org/2000/svg"><path d="M12.84 14.317a.416.416 0 00-.32-.15H7.48a.416.416 0 00-.41.492C7.669 17.904 8.82 20 10 20c1.18 0 2.331-2.096 2.93-5.341a.417.417 0 00-.09-.342zm6.685-7.361a.416.416 0 00-.397-.29h-4.692a.416.416 0 00-.414.46 28.777 28.777 0 010 5.75.416.416 0 00.414.457h4.692a.416.416 0 00.397-.29 9.992 9.992 0 000-6.087zM13.8 5.486c.034.2.208.347.411.347h4.206a.418.418 0 00.366-.616 10.083 10.083 0 00-5.896-4.79.416.416 0 00-.484.602c.607 1.088 1.09 2.63 1.397 4.457zm-1.038 1.181H7.237a.417.417 0 00-.414.372A27.732 27.732 0 006.666 10c0 1.003.053 2 .157 2.961a.417.417 0 00.414.372h5.525c.213 0 .392-.16.415-.372.103-.961.156-1.958.156-2.96 0-1.004-.053-2-.156-2.962a.417.417 0 00-.415-.372zM1.583 5.833h4.205a.417.417 0 00.411-.347c.308-1.828.791-3.369 1.398-4.457a.417.417 0 00-.484-.602 10.083 10.083 0 00-5.896 4.79.417.417 0 00.366.616zm4.29 7.363a.416.416 0 00.106-.321A28.796 28.796 0 015.833 10c0-.95.05-1.918.146-2.875a.416.416 0 00-.415-.458H.872a.416.416 0 00-.397.29 9.992 9.992 0 000 6.087c.055.172.216.29.397.29h4.692c.118 0 .23-.05.309-.138zm.327 1.318a.417.417 0 00-.412-.347H1.583a.418.418 0 00-.366.616 10.083 10.083 0 005.896 4.79.418.418 0 00.484-.602c-.607-1.088-1.09-2.629-1.398-4.457zm12.217-.347h-4.206a.417.417 0 00-.41.347c-.308 1.828-.791 3.369-1.398 4.457a.417.417 0 00.484.602 10.083 10.083 0 005.896-4.79.417.417 0 00-.366-.616zM7.16 5.683c.078.095.196.15.32.15h5.04a.416.416 0 00.41-.492C12.331 2.096 11.18 0 10 0 8.82 0 7.669 2.096 7.07 5.341a.417.417 0 00.09.342z" fill="#fff"/></svg>