<svg width="61" height="75" fill="none" xmlns="http://www.w3.org/2000/svg"><path fill-rule="evenodd" clip-rule="evenodd" d="M47.319 30.711c-1.489 0-2.697-1.242-2.697-2.773v-7.937c0-7.75-6.13-14.053-13.668-14.053h-.057c-3.643 0-7.056 1.441-9.634 4.07-2.596 2.64-4.03 6.163-4.045 9.92v8c0 1.531-1.208 2.773-2.697 2.773s-2.697-1.242-2.697-2.773v-7.937c.021-5.324 2.024-10.238 5.638-13.92C21.08 2.395 25.855.26 30.965.4c10.5 0 19.05 8.793 19.05 19.6v7.937c0 1.531-1.207 2.773-2.696 2.773z" fill="#C7C7C7"/><path fill-rule="evenodd" clip-rule="evenodd" d="M17.182 30.448c-6.034 0-10.939 5.043-10.939 11.247v15.857c0 6.204 4.905 11.247 10.939 11.247h27.476c6.03 0 10.939-5.043 10.939-11.247V41.695c0-6.204-4.909-11.247-10.939-11.247H17.182zm27.476 43.897H17.182C8.174 74.345.849 66.814.849 57.552V41.695c0-9.262 7.325-16.793 16.333-16.793h27.476c9.008 0 16.333 7.531 16.333 16.793v15.857c0 9.262-7.325 16.793-16.333 16.793z" fill="#C7C7C7"/><path fill-rule="evenodd" clip-rule="evenodd" d="M30.92 56.501c-1.49 0-2.698-1.242-2.698-2.773v-8.211c0-1.53 1.209-2.773 2.697-2.773 1.489 0 2.697 1.242 2.697 2.773v8.211c0 1.531-1.208 2.773-2.697 2.773z" fill="#C7C7C7"/></svg>