<svg width="15" height="15" fill="none" xmlns="http://www.w3.org/2000/svg"><path d="M11.2 8.95a.688.688 0 00-.2.606l.555 3.075a.675.675 0 01-.28.675.688.688 0 01-.732.05l-2.768-1.444a.708.708 0 00-.313-.081h-.17a.507.507 0 00-.168.056l-2.769 1.45a.723.723 0 01-.443.07.695.695 0 01-.557-.795l.557-3.075a.7.7 0 00-.2-.612L1.455 6.737a.675.675 0 01-.168-.706.702.702 0 01.556-.468l3.106-.451a.695.695 0 00.55-.38l1.369-2.807a.65.65 0 01.125-.169l.056-.044a.42.42 0 01.1-.08l.069-.026.106-.044h.263a.7.7 0 01.55.375l1.387 2.794a.69.69 0 00.519.38l3.106.452a.708.708 0 01.569.468.679.679 0 01-.181.707L11.199 8.95z" fill="#ED4040"/></svg>