<svg width="62" height="76" fill="none" xmlns="http://www.w3.org/2000/svg"><mask id="mask0" maskUnits="userSpaceOnUse" x="0" y="0" width="62" height="76"><path fill-rule="evenodd" clip-rule="evenodd" d="M.384.663h61.011v75.259H.385V.663z" fill="#fff"/></mask><g mask="url(#mask0)"><path fill-rule="evenodd" clip-rule="evenodd" d="M30.89 6.208c-3.05 0-22.287 6.965-24.506 8.87-.655.676-.68 1.852-.54 9.723C5.91 28.594 6 33.748 6 40.884 6 60.113 26.575 68.649 30.886 70.22c4.308-1.579 24.895-10.164 24.895-29.337 0-7.143.09-12.3.158-16.094.136-7.864.111-9.04-.583-9.75-2.175-1.867-21.417-8.832-24.466-8.832zm0 69.714c-.263 0-.525-.037-.78-.118C28.904 75.43.604 66.328.604 40.883c0-7.088-.09-12.216-.155-15.98-.165-9.402-.2-11.361 2.162-13.786C5.434 8.208 26.812.662 30.89.662c4.074 0 25.451 7.546 28.281 10.456 2.36 2.425 2.323 4.384 2.158 13.775-.065 3.764-.155 8.892-.155 15.99 0 25.445-28.3 34.547-29.504 34.92a2.564 2.564 0 01-.78.119z" fill="#C7C7C7"/></g><path fill-rule="evenodd" clip-rule="evenodd" d="M28.349 46.949a2.663 2.663 0 01-1.91-.813l-6.803-7.003a2.833 2.833 0 01.004-3.923 2.646 2.646 0 013.815 0l4.894 5.04L40.46 27.796a2.642 2.642 0 013.812 0 2.83 2.83 0 010 3.923L30.255 46.136a2.649 2.649 0 01-1.906.813z" fill="#C7C7C7"/></svg>