<svg width="73" height="74" viewBox="0 0 73 74" fill="none" xmlns="http://www.w3.org/2000/svg">
<mask id="mask0" mask-type="alpha" maskUnits="userSpaceOnUse" x="0" y="46" width="58" height="28">
<path fill-rule="evenodd" clip-rule="evenodd" d="M0.890625 46.4465H57.5403V73.5797H0.890625V46.4465Z" fill="white"/>
</mask>
<g mask="url(#mask0)">
<path fill-rule="evenodd" clip-rule="evenodd" d="M29.2154 51.9922C14.0012 51.9922 6.28445 54.6801 6.28445 59.9745C6.28445 65.3206 14.0012 68.0343 29.2154 68.0343C44.4297 68.0343 52.1464 65.3465 52.1464 60.0558C52.1464 54.7023 44.4297 51.9922 29.2154 51.9922ZM29.2155 73.5801C22.2107 73.5801 0.890625 73.5801 0.890625 59.9745C0.890625 47.8477 17.0542 46.4465 29.2155 46.4465C36.2202 46.4465 57.5403 46.4465 57.5403 60.0558C57.5403 72.1789 41.3768 73.5801 29.2155 73.5801Z" fill="#C7C7C7"/>
</g>
<path fill-rule="evenodd" clip-rule="evenodd" d="M29.2157 5.94012C21.6499 5.94012 15.4901 12.2734 15.4901 20.056C15.4758 23.8234 16.8853 27.3542 19.4564 30.0199C22.0311 32.6818 25.4615 34.157 29.115 34.1718L29.2157 36.9447V34.1718C36.785 34.1718 42.9448 27.8385 42.9448 20.056C42.9448 12.2734 36.785 5.94012 29.2157 5.94012ZM29.2157 39.7176H29.1042C24.0016 39.6991 19.2191 37.6398 15.634 33.9278C12.0453 30.2121 10.0783 25.2801 10.0963 20.0449C10.0963 9.21583 18.6725 0.394348 29.2157 0.394348C39.7624 0.394348 48.3386 9.21583 48.3386 20.056C48.3386 30.8961 39.7624 39.7176 29.2157 39.7176Z" fill="#C7C7C7"/>
<path fill-rule="evenodd" clip-rule="evenodd" d="M62.7545 42.6521C61.2658 42.6521 60.0576 41.4098 60.0576 39.8792V25.0498C60.0576 23.5191 61.2658 22.2769 62.7545 22.2769C64.2432 22.2769 65.4515 23.5191 65.4515 25.0498V39.8792C65.4515 41.4098 64.2432 42.6521 62.7545 42.6521Z" fill="#C7C7C7"/>
<path fill-rule="evenodd" clip-rule="evenodd" d="M70.1116 35.2359H55.4044C53.9157 35.2359 52.7075 33.9936 52.7075 32.463C52.7075 30.9323 53.9157 29.6901 55.4044 29.6901H70.1116C71.6003 29.6901 72.8085 30.9323 72.8085 32.463C72.8085 33.9936 71.6003 35.2359 70.1116 35.2359Z" fill="#C7C7C7"/>
</svg>
