<svg width="1700" height="620" viewBox="0 0 1700 620" fill="none" xmlns="http://www.w3.org/2000/svg">
<path d="M0 0H1037.5L993 12.5V414.5C993 414.5 929 417.5 918 414.5C907 411.5 879 344.5 879 344.5C879 344.5 822 355 814.5 353.5C807 352 813.344 359.426 816 368C821.324 385.185 832.5 411.5 832.5 411.5C832.5 411.5 839.235 431.947 848.5 441.5C860.221 453.584 886 455 886 455L900.5 467.5H913C913 467.5 909.5 461.5 925 456.313C940.5 451.126 955.5 449.5 955.5 449.5L990.5 443L1055 456.313L1050 478.5L955.5 475.5C955.5 475.5 947 492 1023.5 540.5C1100 589 1179 566 1179 566C1179 566 1207.5 557.5 1233 537C1258.5 516.5 1265.5 496 1265.5 496L1700 576V700H0V0Z" fill="#131313" fill-opacity="0.6"/>
</svg>
