<svg width="18" height="17" viewBox="0 0 18 17" fill="none" xmlns="http://www.w3.org/2000/svg">
<path d="M8.53368 3.55539L9 4.76088L9.46632 3.55539C10.0587 2.02416 11.7427 0.875 13.5 0.875C15.7687 0.875 17.5 2.58497 17.5 4.875C17.5 6.44572 16.6613 7.89043 15.0808 9.64833C14.1493 10.6844 13.009 11.7799 11.6943 13.0429C10.863 13.8416 9.96195 14.7073 9 15.6671C8.03805 14.7073 7.13702 13.8416 6.30568 13.0429C4.99104 11.7799 3.85066 10.6844 2.91919 9.64833C1.3387 7.89043 0.5 6.44572 0.5 4.875C0.5 2.58497 2.23131 0.875 4.5 0.875C6.25546 0.875 7.94138 2.02426 8.53368 3.55539Z" stroke="#ED4040"/>
</svg>
