<svg width="20" height="20" viewBox="0 0 20 20" fill="none" xmlns="http://www.w3.org/2000/svg">
<path d="M12.8406 14.3168C12.7617 14.2215 12.6441 14.1666 12.5204 14.1666H7.47966C7.35595 14.1666 7.23837 14.2215 7.15943 14.3168C7.08009 14.412 7.04751 14.5373 7.0699 14.659C7.66888 17.9036 8.81919 20 10 20C11.1808 20 12.3311 17.9036 12.9301 14.659C12.9525 14.5373 12.9199 14.412 12.8406 14.3168Z" fill="white"/>
<path d="M19.5249 6.95635C19.47 6.78381 19.3097 6.66663 19.1282 6.66663H14.4362C14.3187 6.66663 14.2064 6.71627 14.1274 6.80373C14.0481 6.89123 14.0098 7.00799 14.0216 7.12518C14.1181 8.08221 14.1669 9.04982 14.1669 9.99994C14.1669 10.9501 14.1181 11.9177 14.0216 12.8747C14.0098 12.9919 14.0481 13.1087 14.1274 13.1961C14.2064 13.2836 14.3187 13.3333 14.4362 13.3333H19.1283C19.3097 13.3333 19.4701 13.2161 19.525 13.0435C19.8403 12.056 20.0002 11.0323 20.0002 9.99998C20.0002 8.96768 19.8403 7.94393 19.5249 6.95635Z" fill="white"/>
<path d="M13.8005 5.4859C13.8343 5.68648 14.0081 5.8334 14.2115 5.8334H18.4173C18.5642 5.8334 18.7005 5.75566 18.7758 5.62953C18.8506 5.50297 18.8535 5.34633 18.7831 5.21734C17.5322 2.92523 15.3834 1.17926 12.8866 0.427302C12.7259 0.377654 12.5489 0.432576 12.4419 0.564841C12.3357 0.697498 12.3202 0.881013 12.4029 1.0291C13.0099 2.11715 13.4933 3.65808 13.8005 5.4859Z" fill="white"/>
<path d="M12.7623 6.66669H7.23736C7.02455 6.66669 6.84592 6.827 6.82314 7.0386C6.71939 8.00052 6.6665 8.997 6.6665 10.0001C6.6665 11.0031 6.71939 11.9996 6.82314 12.9615C6.84592 13.1731 7.02455 13.3334 7.23736 13.3334H12.7623C12.9751 13.3334 13.1537 13.1731 13.1765 12.9615C13.2802 11.9996 13.3331 11.0031 13.3331 10.0001C13.3331 8.997 13.2802 8.00052 13.1765 7.0386C13.1537 6.827 12.9751 6.66669 12.7623 6.66669Z" fill="white"/>
<path d="M1.58271 5.83332H5.78845C5.99189 5.83332 6.16564 5.68644 6.19943 5.48582C6.50665 3.65801 6.99005 2.11707 7.59712 1.02902C7.67974 0.880896 7.66427 0.697381 7.55806 0.564763C7.45146 0.432927 7.27525 0.377185 7.11333 0.427224C4.61658 1.17922 2.46771 2.92519 1.21689 5.2173C1.1465 5.34629 1.14935 5.50297 1.22423 5.62949C1.29951 5.75562 1.43579 5.83332 1.58271 5.83332Z" fill="white"/>
<path d="M5.87281 13.1962C5.95215 13.1087 5.99039 12.992 5.97859 12.8748C5.88215 11.9178 5.83332 10.9501 5.83332 10C5.83332 9.0499 5.88215 8.08228 5.97859 7.12524C5.99039 7.00805 5.95215 6.89126 5.87281 6.8038C5.79387 6.7163 5.68156 6.66669 5.56398 6.66669H0.871992C0.690508 6.66669 0.530195 6.78387 0.475273 6.95641C0.159922 7.94396 0 8.96771 0 10C0 11.0323 0.159922 12.0561 0.475273 13.0437C0.530195 13.2162 0.690508 13.3334 0.871992 13.3334H5.56398C5.68156 13.3333 5.79387 13.2837 5.87281 13.1962Z" fill="white"/>
<path d="M6.19939 14.5142C6.1656 14.3136 5.99185 14.1667 5.78841 14.1667H1.58271C1.43583 14.1667 1.29951 14.2444 1.22423 14.3706C1.14935 14.4971 1.1465 14.6538 1.21689 14.7827C2.46771 17.0748 4.61654 18.8208 7.1133 19.5728C7.15275 19.585 7.19306 19.5907 7.23333 19.5907C7.35744 19.5907 7.47747 19.5349 7.55806 19.4352C7.66427 19.3026 7.67974 19.1191 7.59712 18.971C6.99001 17.8829 6.50661 16.342 6.19939 14.5142Z" fill="white"/>
<path d="M18.4172 14.1667H14.2115C14.0081 14.1667 13.8343 14.3136 13.8005 14.5142C13.4933 16.342 13.0099 17.8829 12.4029 18.971C12.3202 19.1191 12.3357 19.3026 12.4419 19.4352C12.5225 19.5349 12.6425 19.5907 12.7666 19.5907C12.8065 19.5907 12.8472 19.585 12.8867 19.5728C15.3834 18.8208 17.5323 17.0748 18.7831 14.7827C18.8535 14.6538 18.8506 14.4971 18.7758 14.3706C18.7004 14.2444 18.5642 14.1667 18.4172 14.1667Z" fill="white"/>
<path d="M7.15939 5.6832C7.23834 5.77844 7.35592 5.83336 7.47963 5.83336H12.5203C12.644 5.83336 12.7616 5.77844 12.8406 5.6832C12.9199 5.58797 12.9525 5.46266 12.9301 5.34102C12.3311 2.09637 11.1808 0 9.99998 0C8.81916 0 7.66885 2.09637 7.0699 5.34098C7.04752 5.46266 7.08006 5.58797 7.15939 5.6832Z" fill="white"/>
</svg>
