<svg width="61" height="75" viewBox="0 0 61 75" fill="none" xmlns="http://www.w3.org/2000/svg">
<path fill-rule="evenodd" clip-rule="evenodd" d="M47.319 30.7113C45.8303 30.7113 44.6221 29.469 44.6221 27.9384V20.0006C44.6221 12.2513 38.4911 5.94757 30.9541 5.94757H30.8966C27.2539 5.94757 23.8414 7.38947 21.2632 10.0182C18.667 12.658 17.2322 16.1814 17.2178 19.9377V27.9384C17.2178 29.469 16.0096 30.7113 14.5209 30.7113C13.0322 30.7113 11.824 29.469 11.824 27.9384V20.0006C11.8455 14.6766 13.8485 9.76306 17.4623 6.08067C21.0798 2.39458 25.8551 0.261303 30.9649 0.401796C41.4649 0.401796 50.0159 9.1937 50.0159 20.0006V27.9384C50.0159 29.469 48.8077 30.7113 47.319 30.7113Z" fill="#C7C7C7"/>
<path fill-rule="evenodd" clip-rule="evenodd" d="M17.1819 30.448C11.148 30.448 6.2432 35.491 6.2432 41.6948V57.552C6.2432 63.7559 11.148 68.7989 17.1819 68.7989H44.6581C50.6884 68.7989 55.5968 63.7559 55.5968 57.552V41.6948C55.5968 35.491 50.6884 30.448 44.6581 30.448H17.1819ZM44.6581 74.3446H17.1819C8.17419 74.3446 0.849365 66.8135 0.849365 57.552V41.6948C0.849365 32.4334 8.17419 24.9022 17.1819 24.9022H44.6581C53.6658 24.9022 60.9906 32.4334 60.9906 41.6948V57.552C60.9906 66.8135 53.6658 74.3446 44.6581 74.3446Z" fill="#C7C7C7"/>
<path fill-rule="evenodd" clip-rule="evenodd" d="M30.9193 56.5013C29.4306 56.5013 28.2224 55.2591 28.2224 53.7284V45.517C28.2224 43.9863 29.4306 42.7441 30.9193 42.7441C32.408 42.7441 33.6162 43.9863 33.6162 45.517V53.7284C33.6162 55.2591 32.408 56.5013 30.9193 56.5013Z" fill="#C7C7C7"/>
</svg>
