<svg width="62" height="76" viewBox="0 0 62 76" fill="none" xmlns="http://www.w3.org/2000/svg">
<mask id="mask0" mask-type="alpha" maskUnits="userSpaceOnUse" x="0" y="0" width="62" height="76">
<path fill-rule="evenodd" clip-rule="evenodd" d="M0.384277 0.663422H61.3951V75.9218H0.384277V0.663422Z" fill="white"/>
</mask>
<g mask="url(#mask0)">
<path fill-rule="evenodd" clip-rule="evenodd" d="M30.8898 6.20772C27.8405 6.20772 8.60251 13.1732 6.38384 15.0773C5.72939 15.7538 5.70422 16.9296 5.84446 24.8009C5.90919 28.5942 5.99908 33.748 5.99908 40.8836C5.99908 60.1126 26.5748 68.6494 30.8862 70.2207C35.1941 68.642 55.7806 60.0572 55.7806 40.8836C55.7806 33.7406 55.8705 28.5831 55.9388 24.7898C56.0755 16.9259 56.0503 15.7502 55.3563 15.0403C53.1808 13.1732 33.9392 6.20772 30.8898 6.20772ZM30.8897 75.9218C30.6272 75.9218 30.3647 75.8848 30.1094 75.8035C28.9048 75.4301 0.605117 66.3276 0.605117 40.8836C0.605117 33.7961 0.51522 28.6681 0.450494 24.9044C0.285083 15.5024 0.249124 13.5429 2.61162 11.1176C5.4344 8.20791 26.812 0.661957 30.8897 0.661957C34.9639 0.661957 56.3414 8.20791 59.1714 11.1176C61.5303 13.5429 61.4943 15.5024 61.3289 24.8933C61.2642 28.657 61.1743 33.785 61.1743 40.8836C61.1743 66.3276 32.8746 75.4301 31.67 75.8035C31.4147 75.8848 31.1522 75.9218 30.8897 75.9218Z" fill="#C7C7C7"/>
</g>
<path fill-rule="evenodd" clip-rule="evenodd" d="M28.349 46.9488C27.6334 46.9488 26.9466 46.6568 26.4396 46.1355L19.6362 39.133C18.5862 38.0497 18.5862 36.2899 19.6398 35.2103C20.6898 34.127 22.4014 34.127 23.455 35.2103L28.349 40.2495L40.46 27.7974C41.5136 26.7142 43.218 26.7142 44.2716 27.7974C45.3252 28.8807 45.3252 30.6369 44.2716 31.7202L30.2548 46.1355C29.7514 46.6568 29.0646 46.9488 28.349 46.9488Z" fill="#C7C7C7"/>
</svg>
